<?xml version="1.0" encoding="utf-8"?>
<!-- Generator: Adobe Illustrator 22.0.0, SVG Export Plug-In . SVG Version: 6.00 Build 0)  -->
<svg version="1.1" id="Capa_1" xmlns="http://www.w3.org/2000/svg" xmlns:xlink="http://www.w3.org/1999/xlink" x="0px" y="0px"
	 viewBox="0 0 512 512" style="enable-background:new 0 0 512 512;" xml:space="preserve">
<style type="text/css">
	.st0{fill:none;stroke:#000000;stroke-width:16;stroke-miterlimit:10;}
</style>
<path class="st0" d="M437,128H128.6l0,0l-23.1-52.5c-0.7-1.5-2.2-2.5-3.9-2.5H51.9c-1.3,0-2.5,0.8-2.9,2.1l-2.6,8.3
	c-0.4,1.3,0.5,2.5,1.8,2.5h43.6c1.6,0,3,0.9,3.6,2.3l19.9,44c0,0.2,3,8,3,8c0,0,0,0,0,0.1l7,25.5l5.8,20.1l0.3,1.1l19.3,69
	l14.3,50.9c2.2,7.1,5,12.1,11,12.1h59.4c-17.5,0.1-31.9,14.3-31.9,31.8c0,17.6,14.2,31.8,31.8,31.8s31.8-14.2,31.8-31.8
	c0-17.5-14.2-31.7-31.7-31.8h81.9c-17.6,0-31.8,14.2-31.8,31.8s14.2,31.8,31.8,31.8s31.8-14.2,31.8-31.8c0-17.5-14.3-31.8-31.8-31.8
	h53c8.9-1.9,15.1-3.6,19.7-11.1l17.9-51.9l23.8-69l16.2-46.9C448,133.4,443,128,437,128z"/>
</svg>
